<?xml version="1.0" encoding="UTF-8" standalone="no"?>
<svg
   enable-background="new 0 0 100 100"
   viewBox="0 0 93.518997 66.754677"
   version="1.1"
   id="svg451"
   sodipodi:docname="discord.svg"
   width="93.518997"
   height="66.754677"
   inkscape:version="1.2.2 (732a01da63, 2022-12-09)"
   xmlns:inkscape="http://www.inkscape.org/namespaces/inkscape"
   xmlns:sodipodi="http://sodipodi.sourceforge.net/DTD/sodipodi-0.dtd"
   xmlns="http://www.w3.org/2000/svg"
   xmlns:svg="http://www.w3.org/2000/svg">
  <defs
     id="defs455" />
  <sodipodi:namedview
     id="namedview453"
     pagecolor="#ffffff"
     bordercolor="#000000"
     borderopacity="0.25"
     inkscape:showpageshadow="2"
     inkscape:pageopacity="0.0"
     inkscape:pagecheckerboard="0"
     inkscape:deskcolor="#d1d1d1"
     showgrid="false"
     inkscape:zoom="8.37"
     inkscape:cx="36.260454"
     inkscape:cy="33.452808"
     inkscape:window-width="1920"
     inkscape:window-height="1017"
     inkscape:window-x="-8"
     inkscape:window-y="-8"
     inkscape:window-maximized="1"
     inkscape:current-layer="svg451" />
  <path
     fill="#6665d2"
     d="M 81.979,8.3356745 C 70.52,-0.23932545 59.541,0.00167455 59.541,0.00167455 L 58.419,1.2836745 c 13.623,4.087 19.954,10.0970005 19.954,10.0970005 -19.491,-10.73100045 -44.317,-10.65400045 -64.59,0 0,0 6.571,-6.3310005 20.996,-10.41800045 L 33.978,6.7454781e-4 c 0,0 -10.899,-0.23999999781 -22.438,8.33399995219 0,0 -11.54,20.7550005 -11.54,46.3190005 0,0 6.732,11.54 24.442,12.101 0,0 2.965,-3.526 5.369,-6.571 -10.177,-3.045 -14.024,-9.376 -14.024,-9.376 6.394,4.001 12.859,6.505 20.916,8.094 13.108,2.698 29.413,-0.076 41.591,-8.094 0,0 -4.007,6.491 -14.505,9.456 2.404,2.965 5.289,6.411 5.289,6.411 17.71,-0.561 24.441,-12.101 24.441,-12.02 C 93.518,29.090675 81.979,8.3356745 81.979,8.3356745 Z M 31.814,47.201675 c -4.488,0 -8.174,-3.927 -8.174,-8.815 0.328,-11.707 16.102,-11.671 16.348,0 0,4.888 -3.607,8.815 -8.174,8.815 z m 29.249,0 c -4.488,0 -8.174,-3.927 -8.174,-8.815 0.36,-11.684 15.937,-11.689 16.348,0 0,4.888 -3.606,8.815 -8.174,8.815 z"
     id="path449" />
</svg>
